<?xml version="1.0" encoding="UTF-8"?>
<svg xmlns="http://www.w3.org/2000/svg" xmlns:xlink="http://www.w3.org/1999/xlink" width="40px" height="40px" viewBox="0 0 40 40" version="1.1">
<defs>
<filter id="alpha" filterUnits="objectBoundingBox" x="0%" y="0%" width="100%" height="100%">
  <feColorMatrix type="matrix" in="SourceGraphic" values="0 0 0 0 1 0 0 0 0 1 0 0 0 0 1 0 0 0 1 0"/>
</filter>
<mask id="mask0">
  <g filter="url(#alpha)">
<rect x="0" y="0" width="40" height="40" style="fill:rgb(0%,0%,0%);fill-opacity:0.5;stroke:none;"/>
  </g>
</mask>
<clipPath id="clip1">
  <rect x="0" y="0" width="40" height="40"/>
</clipPath>
<g id="surface5" clip-path="url(#clip1)">
<path style=" stroke:none;fill-rule:evenodd;fill:rgb(100%,100%,100%);fill-opacity:1;" d="M 25.6875 0.00390625 L 25.6875 9.105469 C 25.6875 10.140625 26.375 12.722656 29.5 12.722656 L 37.5 12.722656 Z M 25.6875 0.00390625 "/>
</g>
</defs>
<g id="surface1">
<path style=" stroke:none;fill-rule:evenodd;fill:rgb(27.058825%,69.01961%,34.509805%);fill-opacity:1;" d="M 5.691406 0 C 3.941406 0 2.519531 1.421875 2.519531 3.171875 L 2.519531 36.820312 C 2.519531 38.574219 3.941406 39.992188 5.691406 39.992188 L 34.300781 39.992188 C 36.050781 39.992188 37.472656 38.574219 37.472656 36.820312 L 37.472656 12.695312 L 25.65625 0 Z M 5.691406 0 "/>
<path style=" stroke:none;fill-rule:nonzero;fill:rgb(100%,100%,100%);fill-opacity:1;" d="M 15.191406 27 C 15.269531 27.089844 15.316406 27.199219 15.316406 27.324219 C 15.316406 27.5625 15.125 27.773438 14.875 27.773438 C 14.761719 27.773438 14.640625 27.730469 14.5625 27.628906 C 14.121094 27.097656 13.378906 26.761719 12.679688 26.761719 C 11.039062 26.761719 9.789062 28.023438 9.789062 29.8125 C 9.789062 31.589844 11.039062 32.859375 12.679688 32.859375 C 13.390625 32.859375 14.085938 32.558594 14.5625 32.003906 C 14.640625 31.914062 14.761719 31.859375 14.875 31.859375 C 15.136719 31.859375 15.316406 32.082031 15.316406 32.320312 C 15.316406 32.433594 15.269531 32.546875 15.191406 32.636719 C 14.605469 33.242188 13.808594 33.695312 12.683594 33.695312 C 10.519531 33.695312 8.820312 32.117188 8.820312 29.8125 C 8.820312 27.503906 10.519531 25.929688 12.683594 25.929688 C 13.808594 25.929688 14.617188 26.378906 15.191406 27 Z M 19.441406 33.695312 C 18.328125 33.695312 17.449219 33.324219 16.808594 32.761719 C 16.707031 32.671875 16.664062 32.546875 16.664062 32.421875 C 16.664062 32.195312 16.832031 31.949219 17.101562 31.949219 C 17.191406 31.949219 17.292969 31.972656 17.371094 32.039062 C 17.890625 32.5 18.609375 32.859375 19.476562 32.859375 C 20.816406 32.859375 21.242188 32.140625 21.242188 31.566406 C 21.242188 29.628906 16.796875 30.699219 16.796875 28.019531 C 16.796875 26.785156 17.902344 25.9375 19.375 25.9375 C 20.34375 25.9375 21.175781 26.230469 21.78125 26.738281 C 21.882812 26.828125 21.941406 26.953125 21.941406 27.074219 C 21.941406 27.300781 21.75 27.527344 21.5 27.527344 C 21.410156 27.527344 21.308594 27.492188 21.230469 27.425781 C 20.679688 26.972656 19.992188 26.773438 19.308594 26.773438 C 18.40625 26.773438 17.765625 27.253906 17.765625 27.964844 C 17.765625 29.652344 22.210938 28.683594 22.210938 31.488281 C 22.210938 32.578125 21.46875 33.695312 19.441406 33.695312 Z M 30.0625 26.660156 L 27.464844 33.121094 C 27.339844 33.421875 27.035156 33.625 26.722656 33.625 L 26.699219 33.625 C 26.375 33.625 26.070312 33.421875 25.945312 33.121094 L 23.355469 26.660156 C 23.332031 26.605469 23.324219 26.546875 23.324219 26.480469 C 23.324219 26.253906 23.523438 25.984375 23.828125 25.984375 C 24.019531 25.984375 24.199219 26.097656 24.277344 26.289062 L 26.710938 32.535156 L 29.140625 26.289062 C 29.207031 26.109375 29.386719 25.984375 29.589844 25.984375 C 29.882812 25.984375 30.097656 26.222656 30.097656 26.480469 C 30.097656 26.535156 30.085938 26.605469 30.0625 26.660156 Z M 30.0625 26.660156 "/>
<path style=" stroke:none;fill-rule:evenodd;fill:rgb(20.392157%,61.176473%,25.882354%);fill-opacity:1;" d="M 37.5 12.722656 L 37.5 13.347656 L 29.5 13.347656 C 29.5 13.347656 25.554688 12.5625 25.671875 9.15625 C 25.671875 9.15625 25.800781 12.722656 29.421875 12.722656 Z M 37.5 12.722656 "/>
<use xlink:href="#surface5" mask="url(#mask0)"/>
</g>
</svg>
