<svg xmlns="http://www.w3.org/2000/svg" viewBox="0 0 316 87"><path fill="#fbfbfc" stroke="#fbfbfc" d="M156.625 21.518c-1.897 1.896-2.004 2.906-.59 5.548 1.518 2.835 6.761 2.626 7.902-.316 1.796-4.629-3.865-8.679-7.312-5.232M24 43.412V63h8v-7c0-6.995.002-7 2.792-7 2.384 0 3.356.964 6.646 6.587 4.267 7.294 4.801 7.685 9.901 7.23l3.55-.317-4.444-7.275c-4.88-7.986-5.18-9.006-2.908-9.878 5.007-1.921 5.951-12.648 1.547-17.581L46.168 24.5l-11.084-.338L24 23.823v19.589M257.478 25.25c-.253.688-3.388 9.124-6.969 18.747C242.818 64.672 243.044 63 247.935 63c3.59 0 4.047-.307 5.201-3.5l1.266-3.5h14.196l1.266 3.5c1.192 3.297 1.528 3.5 5.784 3.5 2.485 0 4.369-.389 4.185-.865-.183-.476-3.472-9.251-7.309-19.5L265.548 24h-3.805c-2.133 0-4.008.549-4.265 1.25M286 43.5V63h8V24h-8v19.5m-77.57-14c-1.063 1.975-2.657 3.5-3.657 3.5-1.36 0-1.773.816-1.773 3.5 0 2.833.381 3.5 2 3.5 1.846 0 2.001.672 2.015 8.75.021 12.7 2.826 16.464 11.083 14.875 5.373-1.034 6.202-1.872 4.83-4.883-1.014-2.226-1.633-2.502-4.551-2.028l-3.377.548V40h3.5c3.333 0 3.5-.167 3.5-3.5s-.167-3.5-3.5-3.5-3.5-.167-3.5-3.5c0-3.004-.332-3.5-2.343-3.5-1.651 0-2.898 1.032-4.227 3.5M32 36.5V42h3.777C40.823 42 44 39.673 44 35.978 44 32.446 41.696 31 36.066 31H32v5.5m35.5-2.6c-7.394 3.259-10.745 14.412-6.646 22.116C65.475 64.7 78.851 66.5 85.258 59.3c2.938-3.301-1.111-6.409-5.203-3.992-3.996 2.361-8.545 2.156-11.016-.497C65.783 51.316 66.443 51 77 51h10v-3.532c0-4.384-2.042-9.36-4.877-11.887-2.396-2.135-11.277-3.156-14.623-1.681m32 .961c-9.203 5.684-10.405 18.834-2.341 25.619 5.091 4.284 13.677 4.304 19.231.044 3.103-2.379-.452-7.295-3.654-5.052-7.955 5.572-16.92-5.053-11.179-13.249 1.779-2.54 9.082-3.168 11.314-.973 1.232 1.211 5.129-2.015 5.129-4.247 0-3.535-13.681-5.119-18.5-2.142m29.562-.034c-8.217 4.407-9.666 17.342-2.79 24.894 4.531 4.976 14.591 5.382 20.245.817l2.983-2.409-2.153-2.189c-2.027-2.062-2.287-2.095-4.472-.565-3.209 2.248-8.433 2.067-10.875-.375-3.486-3.486-2.457-4 8-4h10l-.022-3.25c-.078-11.517-10.979-18.252-20.916-12.923m27.652-1.208c-.393.393-.714 7.164-.714 15.048V63h8.053l-.276-14.75-.277-14.75-3.036-.297c-1.67-.164-3.357.024-3.75.416m15.953.048c-.367.366-.667 9.843-.667 21.06v20.394l3.75-.311 3.75-.31.295-5.57c.291-5.516.322-5.566 3.174-5.148 13.57 1.992 22.456-17.557 12.505-27.508-3.984-3.984-9.653-4.494-13.787-1.242l-2.583 2.031-1.087-2.031c-1.055-1.971-3.995-2.721-5.35-1.365M259.157 42l-2.026 6h8.738l-2.026-6c-1.115-3.3-2.169-6-2.343-6-.174 0-1.228 2.7-2.343 6m-190.587.195L66.949 44.5l5.639.303c6.302.339 7.327-.123 5.775-2.601-1.735-2.771-7.847-2.776-9.793-.007m62.465-.261C129.444 44.907 129.595 45 136 45c6.405 0 6.556-.093 4.965-3.066C140.211 40.526 138.862 40 136 40c-2.862 0-4.211.526-4.965 1.934m50.62-.105c-1.192 1.317-1.655 3.695-1.655 8.5V57h3.977c5.898 0 9.296-6.612 6.99-13.601-1.321-4.001-6.346-4.848-9.312-1.57" fill-rule="evenodd"/><path fill="#0665fc" stroke="#0665fc" d="M157.596 21.306c-3.75 2.742.237 9.542 4.154 7.087C165.114 26.284 163.804 20 160 20c-.34 0-1.421.588-2.404 1.306M24 43.5V63h7V48.879l3.698.311c3.39.284 4.033.87 7.741 7.06 3.846 6.419 4.228 6.75 7.803 6.75 4.619 0 4.671.574-.76-8.37l-4.517-7.441 2.966-2.966c3.869-3.869 4.736-7.562 2.974-12.659-2.035-5.887-5.943-7.56-17.655-7.562L24 24v19.5m230.304-8.297a6027.647 6027.647 0 0 1-7.194 19.547L244.05 63h3.817c3.586 0 3.889-.241 5.015-4l1.198-4h14.84l1.198 4c1.128 3.765 1.425 4 5.04 4 4.769 0 5.051 1.848-3.052-20l-6.862-18.5-3.403-.297-3.403-.298-4.134 11.298M287 43.5V63h7V24h-7v19.5m-77.759-14.514c-.683 1.093-1.241 2.668-1.241 3.5 0 .948-.934 1.514-2.5 1.514-3.437 0-3.664 4.696-.25 5.18 2.138.304 2.275.857 2.75 11.11.566 12.204.866 12.679 8 12.679 5.68 0 7.428-1.044 6.523-3.897-.55-1.732-1.339-2.115-3.857-1.875l-3.166.303-.288-9.25-.287-9.25h3.537c3.107 0 3.538-.304 3.538-2.5 0-2.19-.433-2.5-3.5-2.5-3.333 0-3.5-.167-3.5-3.5 0-4.1-3.56-5.036-5.759-1.514M31.667 30.667c-.367.366-.667 3.066-.667 6V42h5c8.226 0 11.833-5.626 6.365-9.927-2.542-2-9.226-2.879-10.698-1.406m35.395 4.16c-8.819 4.73-9.646 19.636-1.447 26.085C70.285 64.585 86 62.605 86 58.343c0-2.616-3.285-4.202-5.585-2.695-3.334 2.184-8.895 2.133-11.369-.106C64.955 51.839 66.313 51 76.393 51c10.396 0 11.049-.412 9.937-6.261-1.909-10.045-10.643-14.538-19.268-9.912m35.438-1.145c-11.55 3.185-13.845 21.548-3.46 27.682 3.928 2.321 11.679 2.104 15.857-.443l3.398-2.071-2.093-2.093c-1.729-1.728-2.358-1.872-3.618-.827-4.506 3.74-12.027.553-13.179-5.584-1.538-8.199 5.467-13.749 12.633-10.009 4.052 2.115 7.259-2.441 3.467-4.926-2.661-1.743-9.605-2.667-13.005-1.729m27.5 1.07c-9.6 4.795-10.19 21.16-.96 26.612 4.178 2.469 12.977 2.176 16.575-.55 1.587-1.202 3.07-2.325 3.296-2.494.225-.169-.41-1.214-1.413-2.322-1.594-1.762-2.085-1.846-3.911-.671-5.19 3.342-11.448 2.467-13.428-1.877L129.043 51H149v-4.352c0-10.504-9.669-16.558-19-11.896m52.087.336c-3.046 1.857-3.508 1.911-4.3.496-.487-.871-1.764-1.584-2.837-1.584-1.868 0-1.95.837-1.95 20v20h3c2.97 0 3-.056 3-5.5V63h5.423c4.435 0 6.009-.493 8.636-2.703 13.021-10.957 3.087-33.78-10.972-25.209M157 48.5V63h6V34h-6v14.5M260.64 36c-4.729 11.691-4.63 13 .985 13 4.624 0 4.625-.001 4.014-3.054-1.022-5.111-4.309-11.651-4.999-9.946M69.223 40.557c-4.661 3.264-2.922 5.572 3.948 5.241 6.827-.33 8.082-1.545 4.892-4.735-2.456-2.456-5.785-2.646-8.84-.506m62.178.951C127.978 44.931 129.073 46 136 46c6.846 0 7.736-.794 4.914-4.382-2.623-3.335-6.247-3.376-9.513-.11m50.054-.053c-3.566 3.565-3.721 15.456-.205 15.703 7.068.498 10.75-2.752 10.75-9.491 0-8.057-5.475-11.283-10.545-6.212" fill-rule="evenodd"/></svg>