<svg xmlns="http://www.w3.org/2000/svg" viewBox="0 0 256 256"><path fill="#b3e6fb" stroke="#b3e6fb" d="M0 128.004v128.004l128.25-.254 128.25-.254.254-127.75L257.008 0H0v128.004m.485.496c0 70.4.119 99.053.265 63.672.146-35.38.146-92.98 0-128C.604 29.153.485 58.1.485 128.5M123.091 11.091c-1.034 1.699-3.098 7.887-4.588 13.75-6.388 25.141-11.282 39.78-17.466 52.244-4.581 9.232-4.613 9.632-.826 10.444 4.9 1.052 4.919 1.128 1.641 6.402-4.893 7.872-5.348 7.551 21.421 15.088 23.655 6.66 25.667 7.374 24.391 8.65-.565.565-25.026-5.884-43.427-11.45-6.418-1.942-6.926-1.543-8.448 6.642-1.441 7.744-.88 8.371 8.897 9.95 3.952.638 10.027 2.024 13.5 3.08 29.213 8.881 29.814 8.965 29.814 4.155 0-5.826 7.283-26.056 9.373-26.034.62.006 3.602.676 6.627 1.488 3.025.812 5.864 1.482 6.309 1.488 2.268.033 11.867-23.608 17.048-41.988 3.023-10.725 6.879-22.579 8.57-26.343 3.934-8.761 4.013-12.06.323-13.45C188.878 22.431 131.596 8 127.949 8c-2.257 0-3.434.749-4.858 3.091M128 22.961c0 .529 1.688 1.401 3.75 1.938 46.208 12.03 54.697 14.054 55.516 13.235 1.136-1.136-2.235-2.135-33.985-10.076C126.292 21.307 128 21.652 128 22.961m-1.535 12.095c-.777 1.258 1.394 3.115 3.035 2.594.55-.174 1-.948 1-1.72 0-1.769-3.07-2.434-4.035-.874m-2.944 3.91c-.812 1.314-2.864.677 28.935 8.983 15.669 4.092 27.326 6.669 27.842 6.153 1.067-1.067-.941-1.722-21.798-7.114-20.103-5.196-30.529-7.932-32.666-8.571-.916-.274-1.957-.027-2.313.549m-4.06 13.097c-.816 1.321-.841 1.305 4.014 2.725 4.246 1.242 7.102.097 3.882-1.557-3.306-1.699-7.211-2.277-7.896-1.168M117 55.878c0 .483 1.688 1.334 3.75 1.892C174.152 72.193 177 72.873 177 71.203c0-.77-12.265-4.263-43.339-12.344C117.568 54.674 117 54.572 117 55.878m13.5.122c.34.55 1.293 1 2.118 1s1.222-.45.882-1c-.34-.55-1.293-1-2.118-1s-1.222.45-.882 1m4.5 1.059c0 .582.45.781 1 .441s1-.816 1-1.059-.45-.441-1-.441-1 .477-1 1.059m-22.768 15.138c.375 1.125 54.241 16.693 58.018 16.768.963.019 1.75-.415 1.75-.965s-.223-1-.496-1-13.494-3.6-29.381-8c-31.708-8.782-30.455-8.497-29.891-6.803M106 87.213c0 1.01 6.507 3.219 22.25 7.554 29.448 8.109 30.858 8.458 31.518 7.799 1.242-1.243 1.474-1.168-34.268-11.098-9.35-2.598-17.562-4.939-18.25-5.203-.687-.263-1.25.163-1.25.948M48.982 189.247c-9.375 9.114-11.104 10.635-15.905 13.99-1.808 1.264-2.062 1.821-1 2.198.783.278 2.718.98 4.3 1.559 3.589 1.314 8.84-2.457 21.545-15.473 8.619-8.831 8.946-9.83 3.578-10.918-2.738-.555-3.831.199-12.518 8.644m42.553 5.717c-3.192 3.331-3.585 2.989 6.465 5.627 6.679 1.753 9.87 3.409 6.57 3.409-1.006 0-5.391-.976-9.744-2.169l-7.914-2.169-4.74 4.669c-3.36 3.31-5.553 4.669-7.53 4.669-2.114 0-2.71.424-2.462 1.75.252 1.351 3.062 2.395 12.323 4.578 16.128 3.801 15.092 3.357 13.06 5.602-1.621 1.792-1.601 1.923.391 2.555 1.154.367 2.861 1.829 3.791 3.249l1.692 2.582 12.231-12.908c9.805-10.349 11.893-13.043 10.531-13.588-.934-.374-4.399-1.478-7.699-2.453-3.3-.976-7.068-2.321-8.374-2.991-1.306-.67-2.948-.998-3.649-.729-.701.269-1.546.051-1.877-.485-.331-.536-1.502-.739-2.601-.451-1.117.292-1.999.03-1.999-.594 0-.615-.81-1.117-1.8-1.117s-2.253-.453-2.807-1.007c-.675-.675-1.944-.027-3.858 1.971" fill-rule="evenodd"/><path fill="#78bce4" stroke="#78bce4" d="M128 22.83c0 .88 58.148 16.215 58.917 15.537 1.186-1.045-14.877-5.543-56.167-15.727-1.512-.373-2.75-.287-2.75.19m-38.5 8.031c-5.108 3.155-4.143 1.601-33.947 54.639-3.399 6.05-10.427 18.875-15.617 28.5L30.5 131.5v23c0 24.897.599 28.704 5.308 33.75 1.411 1.513 3.243 2.75 4.07 2.75 1.197 0 1.14.266-.277 1.303-1.577 1.153-1.608 1.446-.27 2.557 1.857 1.541 3.27.522 12.826-9.246 6.355-6.495 6.923-6.844 10.04-6.152 1.817.403 3.847.764 4.511.802 3.142.181-10.179 14.787-22.559 24.737l-4.033 3.241-8.97-2.752c-13.89-4.26-15.193-3.447-12.815 7.993 1.399 6.728 2.234 7.433 11.973 10.101 5.267 1.442 7.435 3.826 3.61 3.969-2.483.092-8.178 3.583-7.279 4.461 1.351 1.318 22.152 7.966 26.22 8.379 2.005.204 4.995.926 6.645 1.605 1.65.678 6.375 2.031 10.5 3.005 4.125.974 9.862 2.431 12.75 3.238 2.888.806 5.25 1.082 5.25.613 0-1.679 3.263-.81 6.182 1.646 6.08 5.115 17.924 2.006 12.609-3.309-.946-.946-.753-1.529.885-2.677 1.153-.807 2.378-2.595 2.724-3.972.346-1.378 1.86-3.162 3.364-3.965 1.505-.803 3.937-2.499 5.405-3.768a100.311 100.311 0 0 1 5.415-4.309c1.51-1.1 3.363-2.611 4.118-3.358 1.624-1.608 2.55-1.458 20.165 3.27 7.353 1.973 15.345 3.588 17.761 3.588 4.393 0 13.372-3.431 13.372-5.11 0-.49.456-.89 1.014-.89 1.335 0 18-13.197 28.727-22.75 2.007-1.787 3.941-3.25 4.298-3.25.804 0 6.701-5.051 12.84-11 2.555-2.475 5.202-4.545 5.883-4.6 2.653-.214 3.022-.465 3.528-2.4.287-1.1 1.164-2 1.947-2 .784 0 2.025-1.121 2.758-2.491 1.927-3.601-.092-7.915-3.408-7.281-2.209.422-2.298.258-1.431-2.639 1.556-5.197 1.058-90.154-.551-93.927-2.431-5.705-5.775-7.735-18.316-11.12L205.5 59.36l-.184-5.93c-.101-3.261-.214-6.448-.25-7.08-.1-1.751-10.09-3.929-11.032-2.405-.407.659-2.89 8.929-5.518 18.377-5.122 18.421-8.471 27.668-13.994 38.634l-3.482 6.914-6.767-1.935c-3.722-1.064-6.869-1.935-6.994-1.935-.664 0-3.379 6.443-5.667 13.447-3.386 10.368-4.142 16.416-2.626 21.009.667 2.023 1.021 3.871.785 4.107-.498.498-11.983-2.406-26.271-6.642-5.5-1.631-11.575-3.383-13.5-3.894-12.58-3.342-12.256-3.143-14.185-8.754-1.677-4.879-1.692-5.68-.227-11.996.863-3.722 1.688-6.886 1.832-7.031.145-.144 11.417 2.909 25.049 6.785 22.501 6.399 29 7.813 23.867 5.195-1.01-.515-11.773-3.741-23.918-7.168-12.145-3.428-22.654-6.586-23.353-7.018-1.388-.858 1.625-9.112 3.822-10.47 2.088-1.29 1.117-2.492-2.883-3.569l-3.995-1.076 2.881-5.712c5.992-11.885 18.022-45.634 16.727-46.929-.78-.78-18.314-5.26-20.617-5.268-1.375-.005-3.85.825-5.5 1.845m37.75 3.87c-.687.239-1.25.848-1.25 1.352 0 1.181 3.708 1.199 4.435.022.666-1.077-1.436-1.984-3.185-1.374m-2.87 4.982c.893.893 54.967 15.165 55.537 14.658 1.079-.961-2.668-2.138-27.136-8.522-25.598-6.679-29.866-7.601-28.401-6.136M120 52.875c0 .833 4.99 2.216 7.375 2.044 1.387-.1-4.391-2.811-6.125-2.874-.687-.025-1.25.349-1.25.83m-3 2.889c0 .495 1.912 1.358 4.25 1.919 2.338.561 15.348 4.011 28.911 7.668C163.725 69.008 175.087 72 175.411 72c1.64 0 .287-1.831-1.661-2.248-2.045-.437-50.874-13.21-55-14.387-.963-.275-1.75-.095-1.75.399m-4.531 16.286c-.291.471 1.397 1.368 3.751 1.994 2.354.625 15.485 4.254 29.18 8.063 21.651 6.023 27.304 7.238 25.517 5.484-.23-.225-10.542-3.193-22.917-6.595-12.375-3.403-25.313-7-28.751-7.995-3.438-.994-6.489-1.422-6.78-.951m-5.919 15.817c.523.477 11.975 3.886 25.45 7.576 13.475 3.689 25.063 6.885 25.75 7.101.688.216 1.25-.025 1.25-.537 0-.511-1.912-1.44-4.25-2.063-2.338-.623-13.834-3.79-25.547-7.038-21.624-5.996-24.372-6.608-22.653-5.039m-27.984 53.71c-3.401 3.401-1.635 5.509 6.434 7.68 4.125 1.11 8.513 2.069 9.75 2.131 1.237.062 2.25.401 2.25.754 0 1.384 5.318 1.962 6.14.666.624-.985.833-.88.845.423.009 1.07 1.066 1.961 2.765 2.333 1.513.331 4.06 1.016 5.662 1.523 1.602.507 3.157.677 3.456.378.3-.299-.432-.8-1.626-1.112-1.906-.498-1.992-.746-.706-2.032 3.444-3.443 1.124-3.872-2.786-.514-1.038.892-1.75 1.053-1.75.398 0-.608.784-1.544 1.742-2.08s1.406-1.311.996-1.721c-.41-.41-1.869.31-3.242 1.6-1.539 1.445-2.496 1.841-2.496 1.031 0-.723.729-1.848 1.621-2.5 1.371-1.003.734-1.464-4.142-2.998l-5.763-1.812-1.874 2.387-1.875 2.388.992-2.75c1.161-3.22-.331-3.791-1.959-.75-.589 1.1-1.56 2-2.158 2-.717 0-.667-.506.147-1.487 2.523-3.04.264-5.092-2.656-2.413l-2.615 2.4.66-2.75c.844-3.514-2.459-3.9-4.798-.56-1.905 2.719-3.164 1.77-1.58-1.19 1.496-2.796.714-3.572-1.434-1.423M82 146c0 .55.45 1 1 1s1-.45 1-1-.45-1-1-1-1 .45-1 1m15.459 2.067c-.363.586-.419 1.306-.126 1.6.717.716 2.667-.546 2.667-1.726 0-1.278-1.726-1.193-2.541.126m3.593 1.894c-1.441 1.087-1.916 2.005-1.249 2.417.591.365 1.439.03 1.886-.745.446-.776 1.711-1.586 2.811-1.801 1.621-.317 1.704-.508.438-1.008-.859-.339-2.607.172-3.886 1.137m15.702 2.856c-2.53 2.968.218 6.836 3.163 4.451 1.407-1.139 1.974-2.388 1.567-3.449-.943-2.458-3.099-2.915-4.73-1.002m.715 1.233c-.95 1.538.351 2.53 1.635 1.246.718-.718.735-1.277.052-1.699-.56-.346-1.319-.142-1.687.453m-31.383 45.633c-8.226 8.199-9.87 9.41-12.15 8.954-2.35-.47-2.587-.264-2.176 1.885.517 2.709.228 2.589 13.24 5.505 14.275 3.2 13.432 2.838 11.527 4.944-1.51 1.668-1.455 1.83.824 2.402 1.344.338 3.302 1.968 4.35 3.624l1.906 3.01 5.697-5.753c3.134-3.165 6.436-6.879 7.34-8.254.903-1.375 4.591-5.525 8.194-9.222 3.604-3.697 6.3-6.973 5.992-7.281-.307-.308-8.361-2.525-17.895-4.928L95.599 190.2l-9.513 9.483m8.414 1.316c3.3 1.071 7.35 2.174 9 2.45 1.65.275.3-.376-3-1.448-3.3-1.071-7.35-2.174-9-2.45-1.65-.275-.3.376 3 1.448m135.359 26.478c-8.813 8.685-10.325 10.929-11.14 16.523-.222 1.522.578 1.583 5.501.421 2.444-.578 21.78-18.665 21.78-20.375 0-.736-5.329-6.046-6.067-6.046-.251 0-4.785 4.265-10.074 9.477M110 227.559c0 .857.45 1.281 1 .941.55-.34 1-1.041 1-1.559s-.45-.941-1-.941-1 .702-1 1.559m-15.232 15.609c.582.582 1.647.86 2.369.62.749-.25.295-.703-1.057-1.057-1.663-.435-2.054-.305-1.312.437" fill-rule="evenodd"/><path fill="#3e85cc" stroke="#3e85cc" d="M129.083 23.405c.579.562 55.324 14.595 56.94 14.595 3.176 0-1.176-1.273-27.099-7.927-25.384-6.516-30.968-7.763-29.841-6.668M89.5 31.28c-3.467 1.947-5.446 4.776-14.853 21.233-15.967 27.932-30.072 53.359-37.283 67.213L31 131.952v22.342c0 26.071.981 31.507 6.262 34.719 6.757 4.109 8.006 3.801 15.113-3.734 7.875-8.348 10.272-9.755 15.077-8.854l3.611.677-2.14 3.007c-2.677 3.759-2.535 3.886 7.4 6.621 18.763 5.163 17.637 5.076 20.574 1.595l2.603-3.086 18.203 5.018 18.203 5.018-8.917 9.564c-4.905 5.261-8.787 9.696-8.627 9.856.991.992 44.787 12.289 47.665 12.296 4.46.011 3.229.895 36.748-26.383 25.779-20.98 28.516-23.501 31-28.56l2.725-5.548v-91l-2.339-3.763c-2.979-4.791-4.245-5.432-18.161-9.196l-11.5-3.111V45.743l-4.5-1.356c-5.942-1.791-5.865-1.807-6.596 1.363-.929 4.028-7.116 25.51-9.975 34.631-1.358 4.335-4.486 12.081-6.949 17.215-5.31 11.063-5.301 10.99-1.507 11.749 7.498 1.499 5.49 7.508-14.252 42.655-11.486 20.448-11.476 20.443-32.801 14.592-14.695-4.033-60.51-16.905-70.23-19.732-13.829-4.022-13.795-5.904.626-35.149C72.821 82.295 73.284 81.9 88.546 85.865l7.046 1.831 5.292-11.505c4.964-10.788 12.392-31.817 13.697-38.771l.582-3.101-9.372-2.659c-11.281-3.202-11.268-3.202-16.291-.38M127 36c0 .55.675 1 1.5 1s1.5-.45 1.5-1-.675-1-1.5-1-1.5.45-1.5 1m-1.5 4.015C127.956 41.095 177.437 54 179.122 54c3.144 0-1.655-1.432-26.668-7.96-25.721-6.712-31.405-7.983-26.954-6.025M120 52.782c0 .43 1.237.85 2.75.934 2.373.132 2.476.034.75-.711-2.605-1.126-3.5-1.183-3.5-.223M120 57c3.419 1.095 6.048 1.095 3.5 0-1.1-.473-2.9-.846-4-.83-1.608.024-1.51.186.5.83m6.083 1.39c.23.215 10.767 3.161 23.417 6.547 12.65 3.386 23.9 6.411 25 6.722 1.317.372 1.658.23 1-.417-.55-.54-8.2-2.879-17-5.198-8.8-2.318-19.254-5.077-23.232-6.13-6.937-1.836-10.074-2.357-9.185-1.524m-13 13.969c.32.352 12.79 4.022 27.711 8.157 14.921 4.134 27.934 7.801 28.917 8.148 1.23.433 1.476.302.789-.419-1.4-1.468-58.733-17.331-57.417-15.886m-6.825 15.232c.825.825 50.029 14.456 50.496 13.988.518-.518-2.824-1.533-28.094-8.531-22.542-6.242-23.395-6.45-22.402-5.457m-8.175 15.824c.895.892 48.917 14.286 48.917 13.644 0-.632-46.37-14.112-48.417-14.076-.504.01-.729.204-.5.432M71 120.727c-3.72 1.884-5.02 5.181-2.778 7.042 1.388 1.152 11.317 4.098 49.681 14.739 25.625 7.108 27.924 7.445 30.603 4.486 2.537-2.804 2.793-2.688-20.263-9.202a28092.471 28092.471 0 0 1-25.884-7.322c-3.936-1.12-5.278-2.012-5.729-3.809-.497-1.98-1.882-2.68-8.86-4.477-12.97-3.34-13.04-3.346-16.77-1.457m-9.237 71.833c1.795.801 4.045 1.61 5 1.798.956.188 2.412.597 3.237.91 6.749 2.555 15.526 4.606 16.32 3.812.579-.579-.728-1.368-3.443-2.076-2.407-.629-7.302-1.991-10.877-3.028-3.575-1.037-8.075-2.107-10-2.378l-3.5-.494 3.263 1.456m-43.126 11.716c-1.792 1.311-1.765 1.736.858 13.347.628 2.782 1.227 2.996 34.505 12.329 15.675 4.396 33.832 9.572 40.35 11.502 14.145 4.189 15.937 3.869 15.454-2.761-.249-3.426-.799-4.414-3.057-5.492-1.515-.722-3.437-2.634-4.271-4.248-2.201-4.256-5.198-5.838-17.108-9.034-12.167-3.264-11.361-2.771-13.355-8.17C69.282 204.356 51 201.111 51 208.019c0 1.64-.176 2.981-.391 2.981-1.116 0-19.717-5.104-23.485-6.444-5.305-1.887-6.247-1.918-8.487-.28M239 218.617c0 1.292 5.817 6.9 6.475 6.242.272-.273-1.073-2.016-2.99-3.874-1.917-1.857-3.485-2.923-3.485-2.368m-2.4 2.222c-.287.464.985 2.305 2.826 4.089 3.643 3.531 6.241 2.571 2.933-1.084-2.403-2.655-5.104-4.065-5.759-3.005m-5.755 8.203c-2.115 2.223-3.845 4.698-3.845 5.5 0 1.77-1.179 1.879-2.8.258-.933-.933-1.2-.923-1.2.045 0 1.51 4.494 6.155 5.955 6.155 1.358 0 1.349-1.694-.015-2.537-.583-.36.655-1.512 2.75-2.56 3.924-1.961 8.839-8.238 7.786-9.942-1.287-2.082-4.97-.767-8.631 3.081m-10.994 11.501c-1.923 5.346-1.622 5.614 3.908 3.497l4.259-1.63-3.277-3.176-3.277-3.177-1.613 4.486" fill-rule="evenodd"/><path fill="#2e3748" stroke="#2e3748" d="M129.813 23.683c.721.289 1.584.253 1.916-.079.332-.332-.258-.568-1.312-.525-1.165.048-1.402.285-.604.604m8 2c.721.289 1.584.253 1.916-.079.332-.332-.258-.568-1.312-.525-1.165.048-1.402.285-.604.604M89.5 31.842C85.336 34.388 85.65 33.915 71.437 59c-24.992 44.111-39.347 71.214-39.99 75.506-.346 2.307-.476 13.373-.288 24.594.408 24.392 1.153 26.878 9.214 30.727l4.873 2.326 7.929-8.026c4.362-4.414 8.694-8.266 9.627-8.56 2.781-.877 7.714.93 7.561 2.768-.075.904.224 1.421.664 1.148.441-.273.953-.127 1.138.324.351.858 20.932 8.193 22.99 8.193.653 0 1.969-.707 2.924-1.572 1.591-1.439 3.174-1.174 18.746 3.14 9.354 2.591 17.608 5.084 18.342 5.541.979.61-1.04 3.217-7.615 9.83-4.921 4.949-8.746 9.188-8.5 9.419.771.724 45.352 12.653 47.264 12.647 2.989-.009 5.391-1.681 24.184-16.846 46.373-37.421 45.175-36.025 46.24-53.873l.577-9.68-4.668 3.825c-3.772 3.092-4.981 4.903-6.301 9.447-3.423 11.778-4.351 13.03-18.079 24.402-12.05 9.982-13.054 11.077-13.551 14.789-.677 5.043-1.287 5.755-12.066 14.09-14.451 11.173-15.182 10.198-14.875-19.837l.218-21.356 4.09-8.136c2.25-4.475 7.802-14.93 12.338-23.233S195.058 121 197.975 115.5c11.574-21.821 19.533-36.206 22.324-40.346 2.865-4.25 8.179-7.573 10.191-6.373.556.332.416-.13-.309-1.025-.726-.895-2.751-1.931-4.5-2.302-1.75-.371-10.112-2.671-18.584-5.111s-15.718-4.078-16.101-3.64c-.687.784-3.996 12.158-3.996 13.735 0 .444.7.226 1.555-.483 1.297-1.077 1.895-.95 3.612.767l2.057 2.058-6.644 13.817c-7.623 15.851-9.75 18.92-10.605 15.299-.508-2.154-.678-2.064-2.758 1.461-2.669 4.524-2.68 4.635-.467 4.675 6.274.114 7.166 6.274 2.388 16.492-6.075 12.992-21.502 39.957-24.729 43.226-5.037 5.102-3.042 5.463-61.909-11.205-14.3-4.049-28.81-8.137-32.245-9.084-7.374-2.033-11.259-5.198-11.246-9.163.012-3.753 21.855-47.938 25.73-52.048C75.321 82.45 76.807 82.329 87 85c4.125 1.081 7.78 1.973 8.122 1.983.587.016 7.817-15.642 11.367-24.615 3.131-7.918 8.449-26.829 7.733-27.499-1.207-1.128-15.652-4.869-18.786-4.865-1.615.002-4.286.829-5.936 1.838m91.313 4.841c.721.289 1.584.253 1.916-.079.332-.332-.258-.568-1.312-.525-1.165.048-1.402.285-.604.604M194 45.261c0 1.843 6.279 3.242 8.634 1.924 2.057-1.151.795-1.933-4.479-2.776-3.339-.534-4.155-.367-4.155.852M71.465 120.952c-1.119.453-2.679 1.601-3.467 2.551-2.987 3.598-2.292 3.843 59.502 20.977 17.772 4.928 17.011 4.845 20.081 2.204l2.701-2.323-25.891-7.258c-23.65-6.63-27.585-8.184-28.625-11.304-.277-.831-18.888-5.838-21.266-5.721-.55.027-1.916.42-3.035.874m-52.139 83.552c-2.125 1.554-.429 13.21 2.203 15.139.858.628 11.552 3.928 23.765 7.332 12.213 3.404 30.469 8.627 40.568 11.607 20.849 6.152 21.857 6.288 23.062 3.117 1.336-3.512.2-7.699-2.087-7.699-1.119 0-2.646-1.292-3.634-3.075-.936-1.691-2.17-3.747-2.741-4.57-.57-.822-6.869-3.151-13.996-5.176l-12.958-3.681-1.308-3.999c-1.712-5.236-1.667-5.202-9.959-7.499-9.323-2.584-10.929-1.929-10.411 4.25.191 2.277.944 2.401-16.056-2.64-12.271-3.638-15.013-4.156-16.448-3.106M237 220.617c0 1.292 5.817 6.9 6.475 6.242.272-.273-1.073-2.016-2.99-3.874-1.917-1.857-3.485-2.923-3.485-2.368m-14 14c0 1.292 5.817 6.9 6.475 6.242.272-.273-1.073-2.016-2.99-3.874-1.917-1.857-3.485-2.923-3.485-2.368" fill-rule="evenodd"/></svg>